<svg viewBox="0 0 500 500" fill="none" xmlns="http://www.w3.org/2000/svg"><path d="M415.85 258.15L374.62 184.4L365.35 194.64L385.9 231.26L408.72 271.86L415.85 258.15Z" fill="#1D1D1B"/><path d="M333.36 258.23L329.88 264.68L341.03 270.95L374.62 211.18L385.9 231.26L367.11 197.77L333.36 258.23Z" fill="url(#pictogram-016-light-purple-blue-paint0_linear_8112_4489)"/><path d="M230.88 146.42C227.46 146.42 224.03 145.84 220.73 144.66L120.97 108.92L125.39 96.57L225.14 132.31C230.45 134.21 236.14 133.43 240.76 130.17C245.37 126.92 248.02 121.81 248.02 116.17V75H261.14V116.17C261.14 125.99 256.35 135.23 248.32 140.89C243.219 144.493 237.125 146.425 230.88 146.42Z" fill="#1D1D1B"/><path d="M370.47 196.94L214.48 142.43L218.81 130.05L374.79 184.56L370.47 196.94Z" fill="url(#pictogram-016-light-purple-blue-paint1_linear_8112_4489)"/><path d="M275.06 359.56L261.94 372.68V226.32L289.34 180.73L346.84 200.6L342.55 213L295.1 196.6L275.06 229.95V359.56Z" fill="url(#pictogram-016-light-purple-blue-paint2_linear_8112_4489)"/><path d="M170.75 177.49L125.21 96.46L117.7 109.82L136.49 143.31L159.31 183.92L170.75 177.49ZM80.18 176.58L80.47 176.74L80.28 176.4L80.18 176.58Z" fill="#1D1D1B"/><path d="M80.28 176.4L80.47 176.74L91.62 183L125.21 123.23L136.49 143.31L117.7 109.82L80.28 176.4Z" fill="url(#pictogram-016-light-purple-blue-paint3_linear_8112_4489)"/><path d="M125.21 249.48C97.48 249.48 74.92 226.92 74.92 199.19C74.92 189.96 77.49 180.89 82.36 172.95L84.28 169.82H166.16L168.08 172.95C172.94 180.88 175.52 189.96 175.52 199.19C175.5 226.92 152.94 249.48 125.21 249.48ZM91.81 182.94C89.3283 187.998 88.0354 193.556 88.03 199.19C88.03 219.69 104.71 236.37 125.21 236.37C145.71 236.37 162.39 219.69 162.39 199.19C162.39 193.56 161.09 188.01 158.61 182.94H91.81Z" fill="url(#pictogram-016-light-purple-blue-paint4_linear_8112_4489)"/><path d="M261.94 359.56H358.92L358.22 372.68H261.94V359.56Z" fill="url(#pictogram-016-light-purple-blue-paint5_linear_8112_4489)"/><path d="M249.31 372.68L249.28 363.12V221.57L211.62 155.79L180 143.1L175.11 155.28L202.5 166.26L236.16 225.06V359.56L249.31 372.68Z" fill="#1D1D1B"/><path d="M126.2 385.72H376.28V398.84H126.2V385.72Z" fill="url(#pictogram-016-light-purple-blue-paint6_linear_8112_4489)"/><path d="M365.53 359.56H358.22L357.77 372.3L380.77 411.88H121.17L144.43 372.68H249.31V359.56H136.96L98.14 425H403.57L365.53 359.56Z" fill="#1D1D1B"/><path d="M374.79 337.62C347.06 337.62 324.5 315.06 324.5 287.33C324.5 278.1 327.07 269.03 331.94 261.09L333.86 257.96H415.74L417.66 261.09C422.52 269.02 425.1 278.1 425.1 287.33C425.09 315.06 402.53 337.62 374.79 337.62ZM341.4 271.08C338.918 276.138 337.625 281.696 337.62 287.33C337.62 307.83 354.3 324.51 374.8 324.51C395.3 324.51 411.98 307.83 411.98 287.33C411.98 281.7 410.68 276.15 408.2 271.08H341.4Z" fill="url(#pictogram-016-light-purple-blue-paint7_linear_8112_4489)"/><defs><linearGradient id="pictogram-016-light-purple-blue-paint0_linear_8112_4489" x1="350.416" y1="261.045" x2="379.63" y2="208.942" gradientUnits="userSpaceOnUse"><stop offset="0.257"/><stop offset="1" stop-opacity="0"/></linearGradient><linearGradient id="pictogram-016-light-purple-blue-paint1_linear_8112_4489" x1="351.356" y1="181.395" x2="238.115" y2="145.656" gradientUnits="userSpaceOnUse"><stop offset="0.547" stop-color="#1D1D1B"/><stop offset="1" stop-opacity="0"/></linearGradient><linearGradient id="pictogram-016-light-purple-blue-paint2_linear_8112_4489" x1="261.546" y1="304.826" x2="330.873" y2="186.339" gradientUnits="userSpaceOnUse"><stop offset="0.547"/><stop offset="1" stop-opacity="0"/></linearGradient><linearGradient id="pictogram-016-light-purple-blue-paint3_linear_8112_4489" x1="100.969" y1="173.081" x2="130.183" y2="120.978" gradientUnits="userSpaceOnUse"><stop offset="0.196"/><stop offset="1" stop-opacity="0"/></linearGradient><linearGradient id="pictogram-016-light-purple-blue-paint4_linear_8112_4489" x1="102.115" y1="158.976" x2="147.666" y2="238.323" gradientUnits="userSpaceOnUse"><stop stop-color="#B175E1"/><stop offset="1" stop-color="#319AF0"/></linearGradient><linearGradient id="pictogram-016-light-purple-blue-paint5_linear_8112_4489" x1="346.501" y1="366.12" x2="268.608" y2="366.12" gradientUnits="userSpaceOnUse"><stop offset="0.547" stop-color="#1D1D1B"/><stop offset="1" stop-opacity="0"/></linearGradient><linearGradient id="pictogram-016-light-purple-blue-paint6_linear_8112_4489" x1="265.333" y1="392.28" x2="384.555" y2="392.28" gradientUnits="userSpaceOnUse"><stop/><stop offset="0.936" stop-opacity="0"/></linearGradient><linearGradient id="pictogram-016-light-purple-blue-paint7_linear_8112_4489" x1="351.695" y1="247.116" x2="397.246" y2="326.462" gradientUnits="userSpaceOnUse"><stop stop-color="#B175E1"/><stop offset="1" stop-color="#319AF0"/></linearGradient></defs></svg>
