<svg width="1000" height="1000" viewBox="0 0 1000 1000" fill="none" xmlns="http://www.w3.org/2000/svg">
<path d="M277 350.6H340V507.2H366.4V324.4H250.6V507.2H277V350.6ZM443.2 351.6H506.4V507.2H532.6V325.2H417V507.2H443.2V351.6ZM826.4 850H448.6L590.8 584.6V325.2H705.4L705.8 500.4H679.6L679 351.6H617V591.2L492.4 823.6H826.4V850Z" fill="white"/>
<path d="M814.8 843L679.8 591.2L679.6 500.4H705.8L706.2 584.6L838 830.6L814.8 843Z" fill="url(#paint0_linear_8112_5616)"/>
<path d="M470.6 850H150L199.2 762.6H498.2V789H214.6L195 823.6H470.6V850Z" fill="url(#paint1_linear_8112_5616)"/>
<path d="M488 339.8H461.6V234.8C461.6 188 499.6 150 546.4 150H576.8C623.6 150 661.6 188 661.6 234.8V337.4H635.2V234.8C635.2 202.6 609 176.4 576.8 176.4H546.4C514.2 176.4 488 202.6 488 234.8V339.8Z" fill="white"/>
<path d="M635.2 337.4H661.6V676.8H635.2V337.4Z" fill="url(#paint2_linear_8112_5616)"/>
<path d="M461.6 339.8H488V494.2H461.6V339.8Z" fill="url(#paint3_linear_8112_5616)"/>
<path d="M755.6 677H541.4L448.6 850H848.4L755.6 677ZM557.8 702H739.2L804.4 823.6H492.6L557.8 702Z" fill="url(#paint4_linear_8112_5616)"/>
<path d="M308.6 678.2C276.6 678.2 250.8 652.2 250.8 620.4V487.2H366.6V620.4C366.4 652.2 340.4 678.2 308.6 678.2ZM277 513.6V620.4C277 637.8 291.2 652 308.6 652C326 652 340.2 637.8 340.2 620.4V513.6H277Z" fill="url(#paint5_linear_8112_5616)"/>
<path d="M474.8 678.2C442.8 678.2 417 652.2 417 620.4V487.2H532.8V620.4C532.6 652.2 506.6 678.2 474.8 678.2ZM443.2 513.6V620.4C443.2 637.8 457.4 652 474.8 652C492.2 652 506.4 637.8 506.4 620.4V513.6H443.2Z" fill="url(#paint6_linear_8112_5616)"/>
<path d="M850 850H823.6V513.4H221.2V779.8H194.8V487.2H850V850Z" fill="url(#paint7_linear_8112_5616)"/>
<defs>
<linearGradient id="paint0_linear_8112_5616" x1="758.8" y1="609.152" x2="758.8" y2="502.106" gradientUnits="userSpaceOnUse">
<stop stop-color="white"/>
<stop offset="0.936" stop-color="white" stop-opacity="0"/>
</linearGradient>
<linearGradient id="paint1_linear_8112_5616" x1="350.122" y1="806.3" x2="495.718" y2="806.3" gradientUnits="userSpaceOnUse">
<stop stop-color="white"/>
<stop offset="0.936" stop-color="white" stop-opacity="0"/>
</linearGradient>
<linearGradient id="paint2_linear_8112_5616" x1="648.4" y1="346.54" x2="648.4" y2="461.574" gradientUnits="userSpaceOnUse">
<stop stop-color="white"/>
<stop offset="0.936" stop-color="white" stop-opacity="0"/>
</linearGradient>
<linearGradient id="paint3_linear_8112_5616" x1="474.8" y1="346.54" x2="474.8" y2="461.574" gradientUnits="userSpaceOnUse">
<stop stop-color="white"/>
<stop offset="0.936" stop-color="white" stop-opacity="0"/>
</linearGradient>
<linearGradient id="paint4_linear_8112_5616" x1="561.5" y1="686.234" x2="642.376" y2="838.474" gradientUnits="userSpaceOnUse">
<stop stop-color="#B175E1"/>
<stop offset="1" stop-color="#12C3EF"/>
</linearGradient>
<linearGradient id="paint5_linear_8112_5616" x1="308.7" y1="511.172" x2="308.7" y2="675.64" gradientUnits="userSpaceOnUse">
<stop stop-color="#B175E1" stop-opacity="0.1"/>
<stop offset="0.492" stop-color="#B175E1"/>
<stop offset="1" stop-color="#12C3EF"/>
</linearGradient>
<linearGradient id="paint6_linear_8112_5616" x1="474.9" y1="511.172" x2="474.9" y2="675.64" gradientUnits="userSpaceOnUse">
<stop stop-color="#B175E1" stop-opacity="0.1"/>
<stop offset="0.492" stop-color="#B175E1"/>
<stop offset="1" stop-color="#12C3EF"/>
</linearGradient>
<linearGradient id="paint7_linear_8112_5616" x1="597.896" y1="786.208" x2="660.696" y2="913.232" gradientUnits="userSpaceOnUse">
<stop stop-color="white"/>
<stop offset="0.936" stop-color="white" stop-opacity="0"/>
</linearGradient>
</defs>
</svg>
