<svg width="1000" height="1000" viewBox="0 0 1000 1000" fill="none" xmlns="http://www.w3.org/2000/svg">
<path d="M301 243C311.493 243 320 234.493 320 224C320 213.507 311.493 205 301 205C290.507 205 282 213.507 282 224C282 234.493 290.507 243 301 243Z" fill="white"/>
<path d="M362.2 243C372.694 243 381.2 234.493 381.2 224C381.2 213.507 372.694 205 362.2 205C351.707 205 343.2 213.507 343.2 224C343.2 234.493 351.707 243 362.2 243Z" fill="white"/>
<path d="M176.4 850H150V489.2L227.4 352.6L250.4 365.6L176.4 496.2V850Z" fill="url(#paint0_linear_8112_5606)"/>
<path d="M299.2 675H480.6V701.6H299.2V675Z" fill="url(#paint1_linear_8112_5606)"/>
<path d="M608.2 513L620 533.6C585.4 548.2 561.2 582.4 561.2 622.2H537.4C537.4 573.6 566.6 531.8 608.2 513ZM389.8 597.6H490.2V622.2H389.8V597.6ZM389.8 549.6H490.2V574.2H389.8V549.6ZM389.8 501.8H490.2V526.4H389.8V501.8Z" fill="white"/>
<path d="M622 348.2H646.6V448.6H622V348.2Z" fill="url(#paint2_linear_8112_5606)"/>
<path d="M669.8 393.4H694.4V448.6H669.8V393.4Z" fill="url(#paint3_linear_8112_5606)"/>
<path d="M572.4 393.4H597V448.6H572.4V393.4Z" fill="url(#paint4_linear_8112_5606)"/>
<path d="M717.8 348.2H742.4V448.6H717.8V348.2Z" fill="url(#paint5_linear_8112_5606)"/>
<path d="M225.8 150V537.2L209.2 566.4L239.2 566.8L345.2 380C349 392.2 350.8 409.8 342.8 431L314 506.2L309 519.6V522C309 540 311.8 555.2 314.6 569.8C321.8 608.8 328.8 645.6 275 731L273 734.2V850.2H299.4V741.8C356.4 650 348.4 606.8 340.6 565C338 551.6 335.8 538.8 335.4 524.4L367.4 440.2C388.8 383.8 357.2 345.4 355.8 343.8L343.6 329.4L252 490.8V297.6H823.6V675.2H477V701.6H850V150H225.8ZM252 271.2V176.4H823.6V271.2H252Z" fill="white"/>
<path d="M657.2 502.2C639.8 502.2 623 506 608 512.8L620 533.8C631.4 529 644.2 526.2 657.4 526.2C710.4 526.2 753.4 569.4 753.4 622.2H777.2C777.2 556 723.4 502.2 657.2 502.2Z" fill="url(#paint6_linear_8112_5606)"/>
<defs>
<linearGradient id="paint0_linear_8112_5606" x1="252.686" y1="512.864" x2="312.832" y2="408.126" gradientUnits="userSpaceOnUse">
<stop stop-color="white"/>
<stop offset="0.936" stop-color="white" stop-opacity="0"/>
</linearGradient>
<linearGradient id="paint1_linear_8112_5606" x1="414.096" y1="688.3" x2="302.944" y2="688.3" gradientUnits="userSpaceOnUse">
<stop stop-color="white"/>
<stop offset="0.936" stop-color="white" stop-opacity="0"/>
</linearGradient>
<linearGradient id="paint2_linear_8112_5606" x1="625.614" y1="398.4" x2="680.748" y2="398.4" gradientUnits="userSpaceOnUse">
<stop stop-color="#B175E1"/>
<stop offset="1" stop-color="#12C3EF"/>
</linearGradient>
<linearGradient id="paint3_linear_8112_5606" x1="649.91" y1="421" x2="740.87" y2="421" gradientUnits="userSpaceOnUse">
<stop stop-color="#B175E1"/>
<stop offset="1" stop-color="#12C3EF"/>
</linearGradient>
<linearGradient id="paint4_linear_8112_5606" x1="572.614" y1="421" x2="663.576" y2="421" gradientUnits="userSpaceOnUse">
<stop stop-color="#B175E1"/>
<stop offset="1" stop-color="#12C3EF"/>
</linearGradient>
<linearGradient id="paint5_linear_8112_5606" x1="709.428" y1="398.4" x2="764.562" y2="398.4" gradientUnits="userSpaceOnUse">
<stop stop-color="#B175E1"/>
<stop offset="1" stop-color="#12C3EF"/>
</linearGradient>
<linearGradient id="paint6_linear_8112_5606" x1="632.312" y1="493.338" x2="761.854" y2="604.954" gradientUnits="userSpaceOnUse">
<stop stop-color="#B175E1"/>
<stop offset="1" stop-color="#12C3EF"/>
</linearGradient>
</defs>
</svg>
