<svg width="980" height="982" viewBox="0 0 980 982" fill="none" xmlns="http://www.w3.org/2000/svg">
<g clip-path="url(#clip0_8112_5619)">
<path d="M398.2 415.4H574.2V441.8H398.2V415.4Z" fill="url(#paint0_linear_8112_5619)"/>
<path d="M398.2 466.2H574.2V492.6H398.2V466.2Z" fill="url(#paint1_linear_8112_5619)"/>
<path d="M398.2 516.6H490V543H398.2V516.6Z" fill="url(#paint2_linear_8112_5619)"/>
<path d="M486 665.8C469.8 665.8 453.6 663.6 437.4 659.4C389.4 646.6 349.2 615.6 324.2 572.6C299.4 529.4 292.6 479.2 305.6 431.2C318.4 383.2 349.4 343 392.4 318C481.4 266.6 595.6 297.2 647 386.2C698.4 475.2 667.8 589.4 578.8 640.8C550 657.4 518.2 665.8 486 665.8ZM485.4 320.8C458.6 320.8 431.2 327.6 406.4 342C369.8 363.2 343.4 397.4 332.4 438.4C321.4 479.4 327 522 348.2 558.8C369.4 595.6 403.6 621.8 444.6 632.6C481.6 642.4 520 638.8 554.2 622.4C557.8 620.6 561.4 618.8 565 616.8C640.8 573 666.8 475.8 623 400.2C593.6 349.4 540.2 321 485.4 320.8Z" fill="url(#paint3_linear_8112_5619)"/>
<path d="M623 400C666.8 475.8 640.6 573 565 616.6C561.4 618.6 557.8 620.6 554.2 622.2L677.2 839.8H709L591.8 632.2C670.8 577.6 695.8 470.4 647 385.8C595.6 296.8 481.4 266.2 392.4 317.6L406.2 341.6C431.2 327.2 458.4 320.4 485.2 320.4C540 320.4 593.6 348.8 622.8 399.6L623 400Z" fill="white"/>
<path d="M229.6 582.8H349.2V609.2H229.6V582.8Z" fill="url(#paint4_linear_8112_5619)"/>
<path d="M786.2 596H759.8V166.4H584.2C538.2 166.4 503.6 198.8 503.6 242H477.2C477.2 183.8 523.2 140 584.2 140H786.2V596Z" fill="white"/>
<path d="M477 242H503.4V313.4H477V242Z" fill="url(#paint5_linear_8112_5619)"/>
<path d="M620 609.2H786.2V582.8H636.8" fill="url(#paint6_radial_8112_5619)"/>
<path d="M503.4 242C503.4 183.8 457.4 140 396.4 140H194.2V609.2H233.4V582.8H220.6V166.4H396.2C442.2 166.4 476.8 198.8 476.8 242" fill="url(#paint7_radial_8112_5619)"/>
<path d="M212.4 668H140V164.2H166.4V641.6H212.4V668Z" fill="white"/>
<path d="M840 668H749.6V641.6H813.6V164.2H840V668Z" fill="white"/>
<path d="M210.4 641.6H445V668H210.4V641.6Z" fill="url(#paint8_linear_8112_5619)"/>
<path d="M594.6 641.6H749.6V668H594.6V641.6Z" fill="url(#paint9_linear_8112_5619)"/>
</g>
<defs>
<linearGradient id="paint0_linear_8112_5619" x1="398.2" y1="428.6" x2="574.2" y2="428.6" gradientUnits="userSpaceOnUse">
<stop stop-color="#B175E1"/>
<stop offset="1" stop-color="#3595F0"/>
</linearGradient>
<linearGradient id="paint1_linear_8112_5619" x1="398.2" y1="479.4" x2="574.2" y2="479.4" gradientUnits="userSpaceOnUse">
<stop stop-color="#B175E1"/>
<stop offset="1" stop-color="#3595F0"/>
</linearGradient>
<linearGradient id="paint2_linear_8112_5619" x1="398.2" y1="529.8" x2="490" y2="529.8" gradientUnits="userSpaceOnUse">
<stop stop-color="#B175E1"/>
<stop offset="1" stop-color="#3595F0"/>
</linearGradient>
<linearGradient id="paint3_linear_8112_5619" x1="404.2" y1="479.42" x2="561.8" y2="479.42" gradientUnits="userSpaceOnUse">
<stop stop-color="white"/>
<stop offset="1" stop-color="white" stop-opacity="0"/>
</linearGradient>
<linearGradient id="paint4_linear_8112_5619" x1="229.6" y1="596" x2="349" y2="596" gradientUnits="userSpaceOnUse">
<stop offset="0.3" stop-color="white"/>
<stop offset="0.8" stop-color="white" stop-opacity="0"/>
</linearGradient>
<linearGradient id="paint5_linear_8112_5619" x1="465.78" y1="302.22" x2="514.62" y2="253.16" gradientUnits="userSpaceOnUse">
<stop offset="0.3" stop-color="white" stop-opacity="0"/>
<stop offset="0.8" stop-color="white"/>
</linearGradient>
<radialGradient id="paint6_radial_8112_5619" cx="0" cy="0" r="1" gradientUnits="userSpaceOnUse" gradientTransform="translate(629.8 564.6) scale(190.2 190.2)">
<stop stop-color="white" stop-opacity="0"/>
<stop offset="0.6" stop-color="white"/>
</radialGradient>
<radialGradient id="paint7_radial_8112_5619" cx="0" cy="0" r="1" gradientUnits="userSpaceOnUse" gradientTransform="translate(366 578.4) scale(152.2 152.2)">
<stop stop-color="white" stop-opacity="0"/>
<stop offset="0.6" stop-color="white"/>
</radialGradient>
<linearGradient id="paint8_linear_8112_5619" x1="210.4" y1="654.8" x2="445" y2="654.8" gradientUnits="userSpaceOnUse">
<stop offset="0.5" stop-color="white"/>
<stop offset="0.8" stop-color="white" stop-opacity="0"/>
</linearGradient>
<linearGradient id="paint9_linear_8112_5619" x1="594.6" y1="654.8" x2="749.6" y2="654.8" gradientUnits="userSpaceOnUse">
<stop stop-color="white" stop-opacity="0"/>
<stop offset="0.6" stop-color="white"/>
</linearGradient>
<clipPath id="clip0_8112_5619">
<rect width="490" height="491" fill="white" transform="scale(2)"/>
</clipPath>
</defs>
</svg>
